<?xml version="1.0" encoding="UTF-8"?>
<svg id="Layer_2" data-name="Layer 2" xmlns="http://www.w3.org/2000/svg" viewBox="0 0 934.65 787.81">
  <defs>
    <style>
      .cls-1 {
        fill: #fff;
        stroke: #6c7086;
        stroke-miterlimit: 10;
        stroke-width: 32.74px;
      }
    </style>
  </defs>
  <g id="Layer_1-2" data-name="Layer 1">
    <path class="cls-1" d="M458.37,771.44c60.63,0,113.95-31.33,144.65-78.69,33.48,31.65,78.67,51.07,128.36,51.07,96.82,0,176.43-73.61,185.95-167.91,.61-6.24,.94-12.58,.94-18.98,0-79.03-49.06-146.6-118.4-173.93,49.64-25.04,83.66-76.48,83.66-135.86,0-84.02-68.11-152.15-152.15-152.15-29.93,0-57.84,8.64-81.36,23.57-41.43-61.64-111.8-102.19-191.65-102.19-119.52,0-217.82,90.91-229.57,207.34-19.96-15.85-45.21-25.33-72.69-25.33-64.62,0-117.01,52.39-117.01,117.01,0,43.09,23.32,80.77,58.03,101.07-48.3,28.16-80.77,80.53-80.77,140.47,0,6.42,.38,12.76,1.1,18.98,9.4,80.8,78.07,143.53,161.4,143.53,47.85,0,90.87-20.68,120.62-53.6,26.05,62.04,87.36,105.6,158.87,105.6Zm204.53-388.43c-10.52,4.12-20.55,9.2-30.02,15.09m-46.64,41.12c13.11-16.18,28.89-30.1,46.64-41.12m-46.64,41.12c-6.85,8.42-12.98,17.46-18.29,27.02m-306.79-99.28c23.73,38.99,58.71,70.39,100.43,89.68"/>
  </g>
</svg>